<?xml version="1.0" encoding="UTF-8" standalone="no"?>
<!-- Created with Inkscape (http://www.inkscape.org/) -->

<svg
   width="64pt"
   height="64pt"
   viewBox="0 0 22.577778 22.577778"
   version="1.1"
   id="svg831"
   inkscape:version="1.1.1 (3bf5ae0d25, 2021-09-20)"
   sodipodi:docname="Export - Unblash - 64px.svg"
   inkscape:export-filename="C:\Users\User\Desktop\CARLOS PROJECT\6. JUNI 2\DONE\FLAT\13 - Submarine.png"
   inkscape:export-xdpi="576"
   inkscape:export-ydpi="576"
   xmlns:inkscape="http://www.inkscape.org/namespaces/inkscape"
   xmlns:sodipodi="http://sodipodi.sourceforge.net/DTD/sodipodi-0.dtd"
   xmlns="http://www.w3.org/2000/svg"
   xmlns:svg="http://www.w3.org/2000/svg"
   xmlns:rdf="http://www.w3.org/1999/02/22-rdf-syntax-ns#"
   xmlns:cc="http://creativecommons.org/ns#"
   xmlns:dc="http://purl.org/dc/elements/1.1/">
  <defs
     id="defs825">
    <pattern
       id="EMFhbasepattern"
       patternUnits="userSpaceOnUse"
       width="6"
       height="6"
       x="0"
       y="0" />
    <pattern
       id="EMFhbasepattern-9"
       patternUnits="userSpaceOnUse"
       width="6"
       height="6"
       x="0"
       y="0" />
    <pattern
       id="EMFhbasepattern-0"
       patternUnits="userSpaceOnUse"
       width="6"
       height="6"
       x="0"
       y="0" />
    <pattern
       id="EMFhbasepattern-7"
       patternUnits="userSpaceOnUse"
       width="6"
       height="6"
       x="0"
       y="0" />
    <pattern
       id="EMFhbasepattern-2"
       patternUnits="userSpaceOnUse"
       width="6"
       height="6"
       x="0"
       y="0" />
    <pattern
       id="EMFhbasepattern-98"
       patternUnits="userSpaceOnUse"
       width="6"
       height="6"
       x="0"
       y="0" />
    <pattern
       id="EMFhbasepattern-6"
       patternUnits="userSpaceOnUse"
       width="6"
       height="6"
       x="0"
       y="0" />
    <pattern
       id="EMFhbasepattern-01"
       patternUnits="userSpaceOnUse"
       width="6"
       height="6"
       x="0"
       y="0" />
    <pattern
       id="EMFhbasepattern-07"
       patternUnits="userSpaceOnUse"
       width="6"
       height="6"
       x="0"
       y="0" />
    <pattern
       id="EMFhbasepattern-8"
       patternUnits="userSpaceOnUse"
       width="6"
       height="6"
       x="0"
       y="0" />
    <pattern
       id="EMFhbasepattern-4"
       patternUnits="userSpaceOnUse"
       width="6"
       height="6"
       x="0"
       y="0" />
    <pattern
       id="EMFhbasepattern-40"
       patternUnits="userSpaceOnUse"
       width="6"
       height="6"
       x="0"
       y="0" />
    <pattern
       id="EMFhbasepattern-08"
       patternUnits="userSpaceOnUse"
       width="6"
       height="6"
       x="0"
       y="0" />
    <pattern
       id="EMFhbasepattern-04"
       patternUnits="userSpaceOnUse"
       width="6"
       height="6"
       x="0"
       y="0" />
    <pattern
       id="EMFhbasepattern-014"
       patternUnits="userSpaceOnUse"
       width="6"
       height="6"
       x="0"
       y="0" />
    <pattern
       id="EMFhbasepattern-27"
       patternUnits="userSpaceOnUse"
       width="6"
       height="6"
       x="0"
       y="0" />
    <pattern
       id="EMFhbasepattern-09"
       patternUnits="userSpaceOnUse"
       width="6"
       height="6"
       x="0"
       y="0" />
    <pattern
       id="EMFhbasepattern-5"
       patternUnits="userSpaceOnUse"
       width="6"
       height="6"
       x="0"
       y="0" />
    <pattern
       id="EMFhbasepattern-018"
       patternUnits="userSpaceOnUse"
       width="6"
       height="6"
       x="0"
       y="0" />
  </defs>
  <sodipodi:namedview
     id="base"
     pagecolor="#ffffff"
     bordercolor="#666666"
     borderopacity="1.0"
     inkscape:pageopacity="0.0"
     inkscape:pageshadow="2"
     inkscape:zoom="9.1757813"
     inkscape:cx="37.925926"
     inkscape:cy="42.666667"
     inkscape:document-units="pt"
     inkscape:current-layer="layer1"
     showgrid="false"
     units="pt"
     inkscape:window-width="1920"
     inkscape:window-height="1001"
     inkscape:window-x="-9"
     inkscape:window-y="-9"
     inkscape:window-maximized="1"
     inkscape:pagecheckerboard="true"
     inkscape:showpageshadow="false"
     inkscape:object-paths="true"
     inkscape:snap-intersection-paths="true"
     inkscape:snap-smooth-nodes="true"
     inkscape:snap-midpoints="true"
     showguides="true"
     inkscape:snap-bbox="true"
     inkscape:bbox-nodes="true"
     inkscape:snap-nodes="false"
     inkscape:snap-global="true"
     inkscape:snap-others="false">
    <inkscape:grid
       type="xygrid"
       id="grid1378" />
    <sodipodi:guide
       position="0.97013831,21.607643"
       orientation="78.000048,0"
       id="guide1380"
       inkscape:locked="false" />
    <sodipodi:guide
       position="0.97013831,0.97013129"
       orientation="0,78.000005"
       id="guide1382"
       inkscape:locked="false" />
    <sodipodi:guide
       position="21.607639,0.97013129"
       orientation="-78.000048,0"
       id="guide1384"
       inkscape:locked="false" />
    <sodipodi:guide
       position="21.607639,21.607643"
       orientation="0,-78.000005"
       id="guide1386"
       inkscape:locked="false" />
  </sodipodi:namedview>
  <metadata
     id="metadata828">
    <rdf:RDF>
      <cc:Work
         rdf:about="">
        <dc:format>image/svg+xml</dc:format>
        <dc:type
           rdf:resource="http://purl.org/dc/dcmitype/StillImage" />
      </cc:Work>
    </rdf:RDF>
  </metadata>
  <g
     inkscape:label="Icon"
     inkscape:groupmode="layer"
     id="layer1"
     transform="translate(0,-274.42223)">
    <g
       id="g18588"
       style="display:inline;stroke-width:0.801792"
       transform="matrix(1.247207,0,0,1.247207,-36.889415,-113.74747)">
      <path
         style="color:#000000;fill:#ececec;stroke-width:0.424282;stroke-linecap:round;stroke-linejoin:round;-inkscape-stroke:none"
         d="m 34.980202,318.28395 -1.437751,0.26761 c -0.142871,0.0266 -0.323151,-0.0765 -0.379853,-0.26082 -0.181513,-0.59014 -0.196268,-1.33139 -0.0035,-1.94165 0.05801,-0.18363 0.241183,-0.29133 0.312268,-0.27483 l 2.241228,0.4224 z"
         id="path85390"
         sodipodi:nodetypes="cccsccc" />
      <path
         id="path391128"
         style="color:#000000;fill:#cccccc;fill-opacity:1;stroke-width:1.60358;stroke-linecap:round;stroke-linejoin:round;-inkscape-stroke:none"
         d="m 125.32617,137.13086 c -0.45122,1.42847 -0.60019,3.04658 -0.48633,4.60156 0.0676,-0.89818 0.22705,-1.78073 0.48633,-2.60156 0.21925,-0.69404 0.91102,-1.10143 1.17969,-1.03906 l 7.71094,1.45312 0.75976,-1.85742 -8.51367,-1.59863 c -0.35129,0.0189 -0.93802,0.41302 -1.13672,1.04199 z"
         transform="matrix(0.26458334,0,0,0.26458334,0,280.06666)"
         sodipodi:nodetypes="ccsccccc" />
      <path
         style="color:#000000;fill:#ececec;stroke-width:0.801792;stroke-linecap:round;stroke-linejoin:round;-inkscape-stroke:none"
         d="m 43.59375,318.80859 a 0.26460996,0.26460996 0 0 0 -0.05859,0.004 l -2.769531,0.42773 a 0.26460996,0.26460996 0 0 0 -0.166016,0.42579 l 2.78125,3.47656 a 0.26460996,0.26460996 0 0 0 0.347657,0.0605 l 1.945312,-1.22265 1.03125,-0.27735 a 0.26460996,0.26460996 0 0 0 0.183594,-0.33984 c -0.471565,-1.40959 -1.755993,-2.44636 -3.294922,-2.55469 z"
         id="path448359" />
      <path
         id="path450632"
         style="color:#000000;fill:#cccccc;fill-opacity:1;stroke-width:3.0304;stroke-linecap:round;stroke-linejoin:round;-inkscape-stroke:none"
         d="m 163.86328,146.54688 c 5.32264,0.79432 9.68488,4.5473 11.35352,9.53515 0.18392,0.54828 -0.13414,1.13781 -0.69336,1.28516 l -3.89844,1.04687 h 2 l 3.89844,-1.04687 c 0.55922,-0.14735 0.87728,-0.73688 0.69336,-1.28516 -1.7823,-5.32758 -6.6367,-9.24681 -12.45313,-9.65625 z"
         transform="matrix(0.26458334,0,0,0.26458334,0,280.06666)"
         sodipodi:nodetypes="ccccccccc" />
      <path
         style="color:#000000;fill:#143441;stroke-width:0.801792;stroke-linecap:round;stroke-linejoin:round;-inkscape-stroke:none"
         d="m 43.107418,321.03126 -0.71875,-1.68945 -7.031246,0.17381 0.90039,3.23243 3.356448,1.08312 1.534181,0.005 z"
         id="path68268"
         sodipodi:nodetypes="ccccccc" />
      <path
         id="path442639"
         style="fill:#0d202b;fill-opacity:1;stroke-width:3.0304;stroke-linecap:round;stroke-linejoin:round"
         d="m 145.70312,150.59766 c 0.65011,1.64005 2.25759,2.7832 4.09766,2.7832 h 12.50977 l -2.10157,-4.93945 z"
         transform="matrix(0.26458334,0,0,0.26458334,0,280.06666)"
         sodipodi:nodetypes="csccc" />
      <path
         id="path437473"
         style="fill:#0d202b;fill-opacity:1;stroke-width:0.801792;stroke-linecap:round;stroke-linejoin:round"
         d="m 35.61333,319.18158 a 0.26460996,0.26460996 0 0 0 -0.255796,0.33383 l 0.302305,1.08469 a 0.35991399,0.35991399 0 0 0 0.158647,0.0388 h 2.814298 c 0.652193,0 1.177706,-0.54791 1.177706,-1.20148 0,-0.0883 -0.009,-0.17379 -0.02584,-0.2558 z" />
      <path
         style="color:#000000;fill:#3a4d5b;stroke-width:0.801792;stroke-linecap:round;stroke-linejoin:round;-inkscape-stroke:none"
         d="m 43.326172,319.90625 c -1.460608,0 -2.650392,1.18783 -2.650391,2.64844 -10e-7,1.46061 1.189783,2.65039 2.650391,2.65039 1.460608,0 2.650396,-1.18978 2.65039,-2.65039 6e-6,-1.46061 -1.189782,-2.64844 -2.65039,-2.64844 z"
         id="path390364" />
      <path
         id="path443660"
         style="fill:#143441;fill-opacity:1;stroke-width:3.0304;stroke-linecap:round;stroke-linejoin:round"
         d="m 163.75195,150.57422 c -2.69377,0 -5.14255,1.07051 -6.94531,2.80664 h 5.81641 c 1.7186,0 3.22784,-0.96746 4.00976,-2.38281 -0.91291,-0.27456 -1.87994,-0.42383 -2.88086,-0.42383 z"
         transform="matrix(0.26458334,0,0,0.26458334,0,280.06666)" />
      <path
         style="color:#000000;fill:#aabfd0;stroke-width:0.801792;stroke-linecap:round;stroke-linejoin:round;-inkscape-stroke:none"
         d="m 43.326172,320.9082 c -0.90706,0 -1.648434,0.73943 -1.648438,1.64649 4e-6,0.90706 0.741378,1.64844 1.648438,1.64843 0.90706,0 1.648434,-0.74137 1.648437,-1.64843 -3e-6,-0.90706 -0.741377,-1.64649 -1.648437,-1.64649 z"
         id="path390172" />
      <path
         id="path434262"
         style="color:#000000;fill:#7d8e9e;fill-opacity:1;stroke-width:0.801792;stroke-linecap:round;stroke-linejoin:round;-inkscape-stroke:none"
         d="m 43.326103,320.9082 c -0.08996,0 -0.178483,0.008 -0.264584,0.0217 0.782238,0.12751 1.38389,0.80979 1.383895,1.62677 -5e-6,0.81699 -0.601657,1.49927 -1.383895,1.62678 0.0861,0.014 0.174625,0.0217 0.264584,0.0217 0.90706,0 1.648473,-0.74142 1.648478,-1.64848 -5e-6,-0.90705 -0.741418,-1.64847 -1.648478,-1.64847 z" />
      <path
         id="path434264"
         style="color:#000000;fill:#143441;fill-opacity:1;stroke-width:0.801792;stroke-linecap:round;stroke-linejoin:round;-inkscape-stroke:none"
         d="m 43.326077,319.90609 c -0.08934,0 -0.177477,0.005 -0.264583,0.0134 1.337156,0.13299 2.385904,1.26355 2.385901,2.63498 3e-6,1.37143 -1.048742,2.50436 -2.385901,2.63756 0.08711,0.009 0.175244,0.0129 0.264583,0.0129 1.460611,0 2.650488,-1.18987 2.650485,-2.65048 3e-6,-1.46061 -1.189874,-2.64842 -2.650485,-2.64842 z" />
      <path
         style="color:#000000;fill:#143441;stroke-width:0.801792;stroke-linecap:round;stroke-linejoin:round;-inkscape-stroke:none"
         d="m 42.564453,319.75977 a 0.2645835,0.2645835 0 0 0 -0.1875,0.32421 l 0.693359,2.6211 a 0.2645835,0.2645835 0 0 0 0.324219,0.1875 0.2645835,0.2645835 0 0 0 0.1875,-0.32422 l -0.693359,-2.62109 a 0.2645835,0.2645835 0 0 0 -0.324219,-0.1875 z"
         id="path23240" />
      <path
         id="path444798"
         style="fill:#0d202b;fill-opacity:1;stroke-width:3.0304;stroke-linecap:round;stroke-linejoin:round"
         d="m 162.09375,150.71289 c -0.66816,0.11194 -1.31487,0.28961 -1.93164,0.52734 a 1.0000006,1.0000006 0 0 0 0.002,0.006 l 0.56446,2.13477 h 1.89453 c 0.059,0 0.11733,-0.002 0.17578,-0.004 l -0.69922,-2.64648 a 1.0000006,1.0000006 0 0 0 -0.006,-0.0176 z"
         transform="matrix(0.26458334,0,0,0.26458334,0,280.06666)" />
      <path
         style="color:#000000;fill:#3a4d5b;stroke-width:0.801792;stroke-linecap:round;stroke-linejoin:round;-inkscape-stroke:none"
         d="m 33.005859,319.90625 c -1.460608,0 -2.650391,1.18783 -2.65039,2.64844 -1e-6,1.46061 1.189782,2.65039 2.65039,2.65039 1.460609,0 2.650392,-1.18978 2.650391,-2.65039 10e-7,-1.46061 -1.189782,-2.64844 -2.650391,-2.64844 z"
         id="path390556" />
      <path
         id="path410851"
         style="color:#000000;fill:#143441;fill-opacity:1;stroke-width:3.0304;stroke-linecap:round;stroke-linejoin:round;-inkscape-stroke:none"
         d="m 128.80273,151.43359 -4.91211,11.05469 a 1.0000006,1.0000006 0 0 0 0.50196,1.32227 1.0000006,1.0000006 0 0 0 1.32031,-0.50977 l 4.83399,-10.87305 c -0.54338,-0.38691 -1.12819,-0.72036 -1.74415,-0.99414 z"
         transform="matrix(0.26458334,0,0,0.26458334,0,280.06666)" />
      <path
         id="path401830"
         style="color:#000000;fill:#143441;fill-opacity:1;stroke-width:3.0304;stroke-linecap:round;stroke-linejoin:round;-inkscape-stroke:none"
         d="m 124.74609,150.57422 c -0.33767,0 -0.67078,0.018 -1,0.0508 5.05382,0.50266 9.01759,4.77564 9.01758,9.95898 1e-5,5.18336 -3.96375,9.46531 -9.01758,9.96875 0.32922,0.0329 0.66234,0.0488 1,0.0488 5.52042,0 10.01759,-4.49716 10.01758,-10.01758 1e-5,-5.52041 -4.49716,-10.00976 -10.01758,-10.00976 z"
         transform="matrix(0.26458334,0,0,0.26458334,0,280.06666)" />
      <path
         style="color:#000000;fill:#aabfd0;stroke-width:0.801792;stroke-linecap:round;stroke-linejoin:round;-inkscape-stroke:none"
         d="m 33.019531,320.91602 c -0.907061,0 -1.646481,0.74137 -1.646484,1.64843 3e-6,0.90706 0.739423,1.64844 1.646484,1.64844 0.907061,0 1.648434,-0.74138 1.648438,-1.64844 -4e-6,-0.90706 -0.741377,-1.64843 -1.648438,-1.64843 z"
         id="path390748" />
      <path
         id="path409538"
         style="color:#000000;fill:#7d8e9e;fill-opacity:1;stroke-width:0.801792;stroke-linecap:round;stroke-linejoin:round;-inkscape-stroke:none"
         d="m 33.520667,322.6904 0.60025,-1.35029 c -0.132382,-0.11927 -0.284033,-0.21708 -0.449586,-0.28887 l -0.891937,2.00711 z"
         sodipodi:nodetypes="ccccc" />
      <path
         id="path402851"
         style="color:#000000;fill:#7d8e9e;fill-opacity:1;stroke-width:3.0304;stroke-linecap:round;stroke-linejoin:round;-inkscape-stroke:none"
         d="m 124.79883,154.39062 c -0.34,0 -0.67458,0.029 -1,0.082 2.95649,0.4819 5.23045,3.0606 5.23047,6.14843 -2e-5,3.08783 -2.27398,5.66653 -5.23047,6.14844 0.32542,0.053 0.66,0.082 1,0.082 3.42826,0 6.23045,-2.80221 6.23047,-6.23047 -2e-5,-3.42825 -2.80221,-6.23047 -6.23047,-6.23047 z"
         transform="matrix(0.26458334,0,0,0.26458334,0,280.06666)" />
      <path
         id="path415510"
         style="color:#000000;fill:#3a4d5b;fill-opacity:1;stroke-width:0.801792;stroke-linecap:round;stroke-linejoin:round;-inkscape-stroke:none"
         d="m 33.671331,321.05124 c -0.03824,0.0863 -0.07648,0.1726 -0.114723,0.2589 0.150712,0.12819 0.278365,0.28344 0.374655,0.4563 0.06322,-0.14211 0.126436,-0.28422 0.189653,-0.42633 -0.133159,-0.11947 -0.285252,-0.21826 -0.449585,-0.28887 z" />
      <path
         style="color:#000000;fill:#3a4d5b;fill-opacity:1;stroke-width:0.801792;stroke-linecap:round;stroke-linejoin:round;-inkscape-stroke:none"
         d="m 33.021413,321.90374 c -0.362176,0 -0.662105,0.29798 -0.662109,0.66015 -5e-6,0.36219 0.299927,0.66211 0.662109,0.66211 0.362182,0 0.660161,-0.29992 0.660157,-0.66211 -5e-6,-0.36217 -0.297981,-0.66015 -0.660157,-0.66015 z"
         id="path23686" />
      <path
         style="color:#000000;fill:#3a4d5b;fill-opacity:1;stroke-width:0.801792;stroke-linecap:round;stroke-linejoin:round;-inkscape-stroke:none"
         d="m 43.326987,321.8945 c -0.362176,0 -0.662105,0.29798 -0.66211,0.66015 -4e-6,0.36219 0.299927,0.66211 0.66211,0.66211 0.362182,0 0.66016,-0.29992 0.660156,-0.66211 -5e-6,-0.36217 -0.29798,-0.66015 -0.660156,-0.66015 z"
         id="path23819" />
      <path
         style="color:#000000;fill:#143441;stroke-width:0.801792;stroke-linecap:round;stroke-linejoin:round;-inkscape-stroke:none"
         d="m 36.056641,315.73437 a 0.2645835,0.2645835 0 0 0 -0.324219,0.1875 0.2645835,0.2645835 0 0 0 0.1875,0.32422 l 1.021484,0.27344 a 0.2645835,0.2645835 0 0 0 0.324219,-0.1875 0.2645835,0.2645835 0 0 0 -0.1875,-0.32422 z"
         id="path26283" />
      <path
         id="path420029"
         style="fill:#0d202b;fill-opacity:1;stroke-width:0.801792;stroke-linecap:round;stroke-linejoin:round"
         d="m 37.481508,321.40914 c -0.275423,0.0233 -0.560588,0.018 -0.816239,0.13947 -0.23948,0.1024 -0.451303,0.26793 -0.609587,0.47467 0.06735,0.24167 0.134702,0.48335 0.202054,0.72502 0.06843,0.20536 0.293669,0.20245 0.463034,0.26358 0.952392,0.27147 1.904786,0.54293 2.857178,0.81439 0.238686,0.021 0.479893,0.005 0.719648,0.01 0.137543,-0.0299 0.16324,-0.25089 0.228116,-0.36621 0.264175,-0.72861 -0.07242,-1.61185 -0.751822,-1.98349 -0.219784,-0.12368 -0.47081,-0.1907 -0.723043,-0.19236 -0.523629,0.0279 -1.04616,0.0779 -1.569339,0.11493 z"
         sodipodi:nodetypes="ccccccccccc" />
      <path
         style="color:#000000;fill:#3a4d5b;stroke-width:0.801792;stroke-linecap:round;stroke-linejoin:round;-inkscape-stroke:none"
         d="m 38.953125,321.74805 -1.699219,0.13086 c -6.46e-4,0 -0.0013,0 -0.002,0 -0.580487,10e-4 -1.056641,0.47787 -1.056641,1.05859 0,0.58137 0.477229,1.05859 1.058594,1.05859 h -0.01953 l 1.71875,0.13086 a 0.26460996,0.26460996 0 0 0 0.01953,0.002 c 0.654428,0 1.191405,-0.53698 1.191406,-1.19141 -10e-7,-0.65495 -0.534448,-1.24146 -1.210937,-1.18945 z"
         id="path418625" />
      <path
         id="path110989"
         style="color:#000000;fill:#3a4d5b;stroke-width:3.0304;stroke-linecap:round;stroke-linejoin:round;-inkscape-stroke:none"
         d="m 140.29297,153.40234 a 1.0000006,1.0000006 0 0 0 -0.99609,1.00391 1.0000006,1.0000006 0 0 0 0.99609,0.99609 h 2.02344 a 1.0000006,1.0000006 0 0 0 1.0039,-0.99609 1.0000006,1.0000006 0 0 0 -1.0039,-1.00391 z m 5.51367,0 a 1.0000006,1.0000006 0 0 0 -0.99609,1.00391 1.0000006,1.0000006 0 0 0 0.99609,0.99609 h 6.99805 a 1.0000006,1.0000006 0 0 0 0.99609,-0.99609 1.0000006,1.0000006 0 0 0 -0.99609,-1.00391 z"
         transform="matrix(0.26458334,0,0,0.26458334,0,280.06666)" />
      <path
         style="color:#000000;fill:#9a605a;stroke-width:0.801792;stroke-linecap:round;stroke-linejoin:round;-inkscape-stroke:none"
         d="m 40.550645,318.28694 c -0.488339,0.0289 -1.001435,0.0728 -1.433669,0.32216 -0.170499,0.0898 -0.316478,0.25778 -0.275728,0.45966 0.01125,0.20754 0.0225,0.41508 0.03374,0.62262 0.07554,0.37219 0.46672,0.62096 0.836172,0.58791 1.11973,-7.3e-4 2.239498,10e-4 3.359205,-10e-4 0.45396,-0.013 0.83484,-0.44371 0.798763,-0.89528 0.02894,-0.45558 -0.221936,-0.92927 -0.651269,-1.10936 -0.210939,-0.0943 -0.448617,-0.12193 -0.676845,-0.0919 -0.659417,0.0917 -1.326005,0.0968 -1.990369,0.10524 z"
         id="path390940"
         sodipodi:nodetypes="cccccccccc" />
      <path
         style="color:#000000;fill:#ececec;stroke-width:0.801792;stroke-linecap:round;stroke-linejoin:round;-inkscape-stroke:none"
         d="m 35.87003,320.1229 0.241007,0.15639 h 2.521775 c 0.449412,0 0.81836,-0.37984 0.81836,-0.8418 0,-0.46324 -0.344329,-0.81646 -0.746094,-0.91797 -0.589382,-0.15903 -0.944889,-0.46532 -1.498047,-0.71094 -0.470605,-0.20897 -1.064813,-0.34014 -1.978832,-0.2416 l -0.609576,1.41357 0.905815,0.21077 0.145405,0.53729 z"
         id="path57046"
         sodipodi:nodetypes="ccsscsccccc" />
      <path
         id="path431657"
         style="color:#000000;fill:#734845;fill-opacity:1;stroke-width:0.801792;stroke-linecap:round;stroke-linejoin:round;-inkscape-stroke:none"
         d="m 42.703854,318.17028 c -0.416861,0.0369 -0.833152,0.0914 -1.252418,0.10016 -0.693632,0.0223 -1.40874,-0.0249 -2.073664,0.21303 -0.22162,0.096 -0.513853,0.21511 -0.541899,0.48728 0.0222,0.10522 0.237416,-0.07 0.334801,-0.051 0.722308,-0.1657 1.467192,-0.0776 2.199384,-0.14415 0.301339,-0.0112 0.598866,-0.0805 0.900528,-0.0738 0.461227,0.0165 0.896292,0.33957 1.0185,0.78925 0.06359,0.24038 0.07559,0.50347 0.006,0.74367 0.367078,-0.11758 0.609182,-0.50361 0.574125,-0.88442 0.02363,-0.47349 -0.269878,-0.95349 -0.725847,-1.10685 -0.140386,-0.0512 -0.290262,-0.0748 -0.439518,-0.0732 z" />
      <path
         id="path57519"
         style="color:#000000;fill:#143441;stroke-width:3.0304;stroke-linecap:round;stroke-linejoin:round;-inkscape-stroke:none"
         d="m 131.03516,146.43359 a 1.0000006,1.0000006 0 0 0 -0.9961,0.9961 1.0000006,1.0000006 0 0 0 0.9961,1.0039 h 1.72851 c 0.41231,0 0.7623,0.26654 0.8711,0.66407 l 0.80859,2.88672 h 2.03906 a 1.0000006,1.0000006 0 0 0 -0.0351,-0.25782 l -0.88672,-3.16015 c -0.34625,-1.25454 -1.49492,-2.13282 -2.79688,-2.13282 z"
         transform="matrix(0.26458334,0,0,0.26458334,0,280.06666)" />
      <path
         id="path430285"
         style="color:#000000;fill:#cccccc;fill-opacity:1;stroke-width:3.0304;stroke-linecap:round;stroke-linejoin:round;-inkscape-stroke:none"
         d="m 135.24805,141.60742 c -0.64777,0.004 -1.34588,0.0455 -2.10157,0.12696 l -0.82031,1.90234 c 2.80078,-0.1537 4.73131,0.31371 6.29883,1.00976 2.09068,0.92833 3.43452,2.08645 5.66211,2.6875 1.51848,0.38366 2.82031,1.71793 2.82031,3.46875 0,0.36188 -0.0618,0.70997 -0.17187,1.03516 1.25327,-0.40715 2.17187,-1.61875 2.17187,-3.03516 0,-1.75082 -1.30183,-3.08509 -2.82031,-3.46875 -2.22759,-0.60105 -3.57143,-1.75917 -5.66211,-2.6875 -1.38958,-0.61703 -3.0635,-1.05474 -5.37695,-1.03906 z"
         transform="matrix(0.26458334,0,0,0.26458334,0,280.06666)" />
      <path
         id="path424680"
         style="color:#000000;fill:#cccccc;fill-opacity:1;stroke-width:3.0304;stroke-linecap:round;stroke-linejoin:round;-inkscape-stroke:none"
         d="m 133.14648,141.73438 -2.30468,5.34179 1.88867,0.43945 2.57226,-5.9082 c -0.70245,0.004 -1.40056,0.0455 -2.15625,0.12696 z"
         transform="matrix(0.26458334,0,0,0.26458334,0,280.06666)"
         sodipodi:nodetypes="ccccc" />
      <path
         id="path413358"
         style="color:#000000;fill:#0d202b;fill-opacity:1;stroke-width:0.801792;stroke-linecap:round;stroke-linejoin:round;-inkscape-stroke:none"
         d="m 34.079057,320.13398 c -0.03514,0.0789 -0.07028,0.15779 -0.105418,0.23668 0.151796,0.10419 0.292467,0.22447 0.41961,0.3576 0.04892,-0.11041 0.09784,-0.22083 0.146762,-0.33124 -0.109207,-0.078 -0.2247,-0.14741 -0.344453,-0.20803 -0.0385,-0.019 -0.07722,-0.0377 -0.116501,-0.055 z" />
      <path
         id="path426013"
         style="color:#000000;fill:#0d202b;fill-opacity:1;stroke-width:3.0304;stroke-linecap:round;stroke-linejoin:round;-inkscape-stroke:none"
         d="m 131.02344,146.43359 -0.73633,1.65625 a 1.0000006,1.0000006 0 0 0 0.74805,0.34375 h 1.28711 l 0.87304,-1.96679 c -0.14168,-0.0215 -0.28517,-0.0332 -0.43164,-0.0332 h -1.72851 a 1.0000006,1.0000006 0 0 0 -0.0117,0 z"
         transform="matrix(0.26458334,0,0,0.26458334,0,280.06666)" />
      <path
         style="color:#000000;fill:#143441;stroke-width:0.801792;stroke-linecap:round;stroke-linejoin:round;-inkscape-stroke:none"
         d="m 36.244141,315.38281 a 0.2645835,0.2645835 0 0 0 -0.34961,0.13477 l -3.115234,7.01172 a 0.2645835,0.2645835 0 0 0 0.132812,0.34961 0.2645835,0.2645835 0 0 0 0.34961,-0.13477 l 3.117187,-7.01172 a 0.2645835,0.2645835 0 0 0 -0.134765,-0.34961 z"
         id="path20061" />
      <path
         style="color:#000000;fill:#3a4d5b;stroke-width:0.801792;stroke-linecap:round;stroke-linejoin:round;-inkscape-stroke:none"
         d="m 37.214844,315.49609 a 0.26460996,0.26460996 0 0 0 -0.324219,0.1875 l -0.273438,1.02344 a 0.26460996,0.26460996 0 0 0 0.1875,0.32227 l 1.277344,0.34375 c 0.420513,0.11268 0.874512,-0.13513 0.97461,-0.57032 0.09498,-0.41295 -0.141937,-0.85025 -0.5625,-0.96289 z"
         id="path389109" />
      <path
         id="path85206"
         style="color:#000000;fill:#fca311;stroke-width:0.424282;stroke-linecap:round;stroke-linejoin:round;-inkscape-stroke:none"
         d="m 33.159217,316.3492 c -0.192768,0.61026 -0.177896,1.35134 0.0036,1.94148 0.0567,0.18432 0.236952,0.28757 0.379822,0.26097 l 0.218591,-0.0408 c 0.280469,-0.80248 0.311936,-1.51229 0.02532,-2.37711 l -0.326586,-0.0602 c -0.09294,0.005 -0.248175,0.10925 -0.300747,0.27567 z"
         sodipodi:nodetypes="ccccccc" />
      <path
         id="path395081"
         style="color:#000000;fill:#143441;fill-opacity:1;stroke-width:3.0304;stroke-linecap:round;stroke-linejoin:round;-inkscape-stroke:none"
         d="m 139.42969,134.61523 -0.37305,1.39844 4.43359,1.19141 c 1.58953,0.42572 2.48398,2.07987 2.125,3.64062 -0.01,0.0436 -0.0213,0.0864 -0.0332,0.12891 0.9752,-0.29043 1.78708,-1.05885 2.0332,-2.12891 0.35898,-1.56075 -0.53547,-3.2149 -2.125,-3.64062 l -4.83593,-1.29883 c -0.62905,-0.16855 -1.11327,0.29344 -1.22461,0.70898 z"
         transform="matrix(0.26458334,0,0,0.26458334,0,280.06666)"
         sodipodi:nodetypes="cccscsccc" />
      <path
         id="path552022"
         style="color:#000000;fill:#ec7523;fill-opacity:1;stroke-width:1.60358;stroke-linecap:round;stroke-linejoin:round;-inkscape-stroke:none"
         d="m 125.74609,136.46094 c 1.00362,3.11478 0.90575,5.7058 -0.0605,8.59375 0.30545,0.3155 0.72934,0.46751 1.08984,0.40039 l 0.82617,-0.1543 c 1.06004,-3.03299 1.17898,-5.71576 0.0957,-8.98437 l -1.23438,-0.22754 c -0.21857,0.01 -0.4837,0.14366 -0.7168,0.37207 z"
         transform="matrix(0.26458334,0,0,0.26458334,0,280.06666)"
         sodipodi:nodetypes="ccccccc" />
      <path
         style="color:#000000;fill:#3a4d5b;fill-opacity:1;stroke-width:0.801792;stroke-linecap:round;stroke-linejoin:round;-inkscape-stroke:none"
         d="m 33.072266,324.67578 a 0.2645835,0.2645835 0 0 0 -0.263672,0.26563 0.2645835,0.2645835 0 0 0 0.263672,0.26367 h 13.49414 a 0.2645835,0.2645835 0 0 0 0.265625,-0.26367 0.2645835,0.2645835 0 0 0 -0.265625,-0.26563 z"
         id="path38677" />
    </g>
  </g>
</svg>
